<?xml version="1.0" encoding="UTF-8" standalone="no"?>
<!-- Created with Inkscape (http://www.inkscape.org/) -->

<svg
   xmlns:dc="http://purl.org/dc/elements/1.1/"
   xmlns:cc="http://creativecommons.org/ns#"
   xmlns:rdf="http://www.w3.org/1999/02/22-rdf-syntax-ns#"
   xmlns:svg="http://www.w3.org/2000/svg"
   xmlns="http://www.w3.org/2000/svg"
   xmlns:sodipodi="http://sodipodi.sourceforge.net/DTD/sodipodi-0.dtd"
   xmlns:inkscape="http://www.inkscape.org/namespaces/inkscape"
   id="svg3136"
   version="1.1"
   inkscape:version="0.48.4 r9939"
   width="290.12782"
   height="174.74174"
   xml:space="preserve"
   sodipodi:docname="Debye.svg"><metadata
     id="metadata3142"><rdf:RDF><cc:Work
         rdf:about=""><dc:format>image/svg+xml</dc:format><dc:type
           rdf:resource="http://purl.org/dc/dcmitype/StillImage" /><dc:title></dc:title></cc:Work></rdf:RDF></metadata><defs
     id="defs3140"><clipPath
       clipPathUnits="userSpaceOnUse"
       id="clipPath3154"><path
         d="m 33.130256,13.741815 197.532004,0 0,122.342395 -197.532004,0 0,-122.342395 z"
         id="path3156" /></clipPath><clipPath
       clipPathUnits="userSpaceOnUse"
       id="clipPath3164"><path
         d="m 33.130256,13.741815 197.532004,0 0,122.342395 -197.532004,0 0,-122.342395 z"
         id="path3166" /></clipPath><clipPath
       clipPathUnits="userSpaceOnUse"
       id="clipPath3174"><path
         d="m 33.130256,13.741815 197.532004,0 0,122.342395 -197.532004,0 0,-122.342395 z"
         id="path3176" /></clipPath></defs><sodipodi:namedview
     pagecolor="#ffffff"
     bordercolor="#666666"
     borderopacity="1"
     objecttolerance="10"
     gridtolerance="10"
     guidetolerance="10"
     inkscape:pageopacity="0"
     inkscape:pageshadow="2"
     inkscape:window-width="1024"
     inkscape:window-height="718"
     id="namedview3138"
     showgrid="false"
     inkscape:zoom="2.1042226"
     inkscape:cx="147.2828"
     inkscape:cy="95.966122"
     inkscape:window-x="0"
     inkscape:window-y="0"
     inkscape:window-maximized="1"
     inkscape:current-layer="g3144" /><g
     id="g3144"
     inkscape:groupmode="layer"
     inkscape:label="d1"
     transform="matrix(1.25,0,0,-1.25,0,174.74174)"><path
       d="m 0,0 232.10226,0 0,139.7934 L 0,139.7934 0,0 z"
       style="fill:#ffffff;fill-opacity:1;fill-rule:nonzero;stroke:none"
       id="path3146" /><path
       d="m 33.130256,13.741815 197.532004,0 0,122.342395 -197.532004,0 0,-122.342395 z"
       style="fill:#ffffff;fill-opacity:1;fill-rule:nonzero;stroke:none"
       id="path3148" /><g
       id="g3170"><g
         id="g3172"
         clip-path="url(#clipPath3174)"
         style="stroke:#000000;stroke-opacity:1;stroke-width:1;stroke-miterlimit:4;stroke-dasharray:none"><path
           d="m 44.104256,13.741815 2.1948,6.046301 2.1948,4.318784 2.1948,3.239084 2.1948,2.519282 2.1948,2.015419 2.1948,1.648971 2.1948,1.374134 2.1948,1.162721 2.1948,0.996607 2.1948,0.863717 2.1948,0.755741 2.1948,0.66682 2.1948,0.592718 2.1948,0.530314 2.1948,0.477272 2.1948,0.431805 2.1948,0.392538 2.1948,0.358392 2.1948,0.328513 2.1948,0.302219 2.1948,0.278959 2.1948,0.258282 2.1948,0.23982 2.1948,0.223268 2.1948,0.208369 0,-28.724984 2.194804,0.194908 2.1948,0.182704 2.1948,0.171608 2.1948,0.161492 2.1948,0.15224 2.1948,0.143759 2.1948,0.135966 2.1948,0.128786 2.1948,0.122159 2.1948,0.116028 2.1948,0.110345 2.1948,0.105066 2.1948,0.100157 2.1948,0.09558 2.1948,0.09131 2.1948,0.08732 2.1948,0.08358 2.1948,0.08007 2.1948,0.07678 2.1948,0.07368 2.1948,0.07077 2.1948,0.06803 2.1948,0.06543 2.1948,0.06299 2.1948,0.06067 0,81.046352 2.1948,0.05849 2.1948,0.05644 2.1948,0.0545 2.1948,0.05265 2.1948,0.0509 2.1948,0.04923 2.1948,0.04764 2.1948,0.04613 2.1948,0.04469 2.1948,0.04332 2.1948,0.04201 2.1948,0.04075 2.1948,0.03956 2.1948,0.03841 2.1948,0.03731 2.1948,0.03627 2.1948,0.03526 2.1948,0.03429 2.1948,0.03337 2.1948,0.03248 2.1948,0.03163 2.1948,0.03081 2.1948,0.03002 2.1948,0.0293 2.1948,0.0285 2.1948,0.0278 2.1948,0.0271 2.1948,0.0265 2.1948,0.0259 2.1948,0.0252 2.1948,0.0247 2.1948,0.0241 2.1948,0.0236 2.1948,0.023 2.1948,0.0225 2.1948,0.022 0.2452,0.002"
           style="fill:none;stroke:#000000;stroke-opacity:1;stroke-width:1;stroke-linecap:butt;stroke-linejoin:round;stroke-miterlimit:4;stroke-dasharray:none;stroke-dashoffset:0"
           id="path3178" /></g></g><text
       transform="matrix(1,0,0,-1,38.441881,2.9340312)"
       id="text3180"><tspan
         style="fill:#000000;fill-opacity:1;fill-rule:nonzero;stroke:none;font-family:LMMathItalic10;font-style:italic;font-variant:normal;font-weight:normal;font-size:9.9626401;writing-mode:lr;-inkscape-font-specification:LMMathItalic10-Regular"
         x="0"
         y="0"
         id="tspan3182">R</tspan></text>
<text
       transform="matrix(1,0,0,-1,46.00641,1.44)"
       id="text3184"><tspan
         style="fill:#000000;fill-opacity:1;fill-rule:nonzero;stroke:none;font-family:LMMathItalic7;font-style:italic;font-variant:normal;font-weight:normal;font-size:6.97384807;writing-mode:lr;-inkscape-font-specification:LMMathItalic7-Regular"
         x="0"
         y="0"
         id="tspan3186">s</tspan></text>
<text
       transform="matrix(1,0,0,-1,96.341186,5.4523584)"
       id="text3188"><tspan
         style="fill:#000000;fill-opacity:1;fill-rule:nonzero;stroke:none;font-family:LMMathItalic10;font-style:italic;font-variant:normal;font-weight:normal;font-size:9.9626401;writing-mode:lr;-inkscape-font-specification:LMMathItalic10-Regular"
         x="0"
         y="0"
         id="tspan3190">a</tspan></text>
<text
       transform="matrix(1,0,0,-1,151.70644,2.8233166)"
       id="text3192"><tspan
         style="fill:#000000;fill-opacity:1;fill-rule:nonzero;stroke:none;font-family:LMMathItalic10;font-style:italic;font-variant:normal;font-weight:normal;font-size:9.9626401;writing-mode:lr;-inkscape-font-specification:LMMathItalic10-Regular"
         x="0"
         y="0"
         id="tspan3194">b</tspan></text>
<text
       transform="matrix(1,0,0,-1,217.44089,5.4523584)"
       id="text3196"><tspan
         style="fill:#000000;fill-opacity:1;fill-rule:nonzero;stroke:none;font-family:LMMathItalic10;font-style:italic;font-variant:normal;font-weight:normal;font-size:9.9626401;writing-mode:lr;-inkscape-font-specification:LMMathItalic10-Regular"
         x="0"
         y="0"
         id="tspan3198">r</tspan></text>
<path
       d="m 33.130256,13.741815 4,0"
       style="fill:#000000;fill-opacity:1;fill-rule:nonzero;stroke:#000000;stroke-opacity:1;stroke-width:0.5;stroke-linecap:butt;stroke-linejoin:round;stroke-miterlimit:10;stroke-dasharray:none"
       id="path3200" /><path
       d="m 230.66226,13.741815 -4,0"
       style="fill:#000000;fill-opacity:1;fill-rule:nonzero;stroke:#000000;stroke-opacity:1;stroke-width:0.5;stroke-linecap:butt;stroke-linejoin:round;stroke-miterlimit:10;stroke-dasharray:none"
       id="path3202" /><text
       transform="matrix(1,0,0,-1,16.400208,10.604958)"
       id="text3204"><tspan
         style="fill:#000000;fill-opacity:1;fill-rule:nonzero;stroke:none;font-family:LMRoman10;font-variant:normal;font-weight:normal;font-size:9.9626401;writing-mode:lr;-inkscape-font-specification:LMRoman10-Regular"
         x="0"
         y="0"
         id="tspan3206">0</tspan></text>
<text
       transform="matrix(1,0,0,-1,21.381528,10.604958)"
       id="text3208"><tspan
         style="fill:#000000;fill-opacity:1;fill-rule:nonzero;stroke:none;font-family:LMMathItalic10;font-style:italic;font-variant:normal;font-weight:normal;font-size:9.9626401;writing-mode:lr;-inkscape-font-specification:LMMathItalic10-Regular"
         x="0"
         y="0"
         id="tspan3210">.</tspan></text>
<text
       transform="matrix(1,0,0,-1,24.148936,10.604958)"
       id="text3212"><tspan
         style="fill:#000000;fill-opacity:1;fill-rule:nonzero;stroke:none;font-family:LMRoman10;font-variant:normal;font-weight:normal;font-size:9.9626401;writing-mode:lr;-inkscape-font-specification:LMRoman10-Regular"
         x="0"
         y="0"
         id="tspan3214">0</tspan></text>
<path
       d="m 33.130256,74.479177 4,0"
       style="fill:#000000;fill-opacity:1;fill-rule:nonzero;stroke:#000000;stroke-opacity:1;stroke-width:0.5;stroke-linecap:butt;stroke-linejoin:round;stroke-miterlimit:10;stroke-dasharray:none"
       id="path3216" /><path
       d="m 230.66226,74.479177 -4,0"
       style="fill:#000000;fill-opacity:1;fill-rule:nonzero;stroke:#000000;stroke-opacity:1;stroke-width:0.5;stroke-linecap:butt;stroke-linejoin:round;stroke-miterlimit:10;stroke-dasharray:none"
       id="path3218" /><text
       transform="matrix(1,0,0,-1,16.400208,71.342319)"
       id="text3220"><tspan
         style="fill:#000000;fill-opacity:1;fill-rule:nonzero;stroke:none;font-family:LMRoman10;font-variant:normal;font-weight:normal;font-size:9.9626401;writing-mode:lr;-inkscape-font-specification:LMRoman10-Regular"
         x="0"
         y="0"
         id="tspan3222">0</tspan></text>
<text
       transform="matrix(1,0,0,-1,21.381528,71.342319)"
       id="text3224"><tspan
         style="fill:#000000;fill-opacity:1;fill-rule:nonzero;stroke:none;font-family:LMMathItalic10;font-style:italic;font-variant:normal;font-weight:normal;font-size:9.9626401;writing-mode:lr;-inkscape-font-specification:LMMathItalic10-Regular"
         x="0"
         y="0"
         id="tspan3226">.</tspan></text>
<text
       transform="matrix(1,0,0,-1,24.148936,71.342319)"
       id="text3228"><tspan
         style="fill:#000000;fill-opacity:1;fill-rule:nonzero;stroke:none;font-family:LMRoman10;font-variant:normal;font-weight:normal;font-size:9.9626401;writing-mode:lr;-inkscape-font-specification:LMRoman10-Regular"
         x="0"
         y="0"
         id="tspan3230">7</tspan></text>
<path
       d="m 33.130256,135.21654 4,0"
       style="fill:#000000;fill-opacity:1;fill-rule:nonzero;stroke:#000000;stroke-opacity:1;stroke-width:0.5;stroke-linecap:butt;stroke-linejoin:round;stroke-miterlimit:10;stroke-dasharray:none"
       id="path3232" /><path
       d="m 230.66226,135.21654 -4,0"
       style="fill:#000000;fill-opacity:1;fill-rule:nonzero;stroke:#000000;stroke-opacity:1;stroke-width:0.5;stroke-linecap:butt;stroke-linejoin:round;stroke-miterlimit:10;stroke-dasharray:none"
       id="path3234" /><text
       transform="matrix(1,0,0,-1,16.400208,132.07968)"
       id="text3236"><tspan
         style="fill:#000000;fill-opacity:1;fill-rule:nonzero;stroke:none;font-family:LMRoman10;font-variant:normal;font-weight:normal;font-size:9.9626401;writing-mode:lr;-inkscape-font-specification:LMRoman10-Regular"
         x="0"
         y="0"
         id="tspan3238">1</tspan></text>
<text
       transform="matrix(1,0,0,-1,21.381528,132.07968)"
       id="text3240"><tspan
         style="fill:#000000;fill-opacity:1;fill-rule:nonzero;stroke:none;font-family:LMMathItalic10;font-style:italic;font-variant:normal;font-weight:normal;font-size:9.9626401;writing-mode:lr;-inkscape-font-specification:LMMathItalic10-Regular"
         x="0"
         y="0"
         id="tspan3242">.</tspan></text>
<text
       transform="matrix(1,0,0,-1,24.148936,132.07968)"
       id="text3244"><tspan
         style="fill:#000000;fill-opacity:1;fill-rule:nonzero;stroke:none;font-family:LMRoman10;font-variant:normal;font-weight:normal;font-size:9.9626401;writing-mode:lr;-inkscape-font-specification:LMRoman10-Regular"
         x="0"
         y="0"
         id="tspan3246">4</tspan></text>
<text
       transform="matrix(0,1,1,0,8.9654903,62.81359)"
       id="text3248"><tspan
         style="fill:#000000;fill-opacity:1;fill-rule:nonzero;stroke:none;font-family:LMMathItalic10;font-style:italic;font-variant:normal;font-weight:normal;font-size:9.9626401;writing-mode:lr;-inkscape-font-specification:LMMathItalic10-Regular"
         x="0"
         y="0"
         id="tspan3250">ρ</tspan></text>
<text
       transform="matrix(0,1,1,0,10.459522,67.964425)"
       id="text3252"><tspan
         style="fill:#000000;fill-opacity:1;fill-rule:nonzero;stroke:none;font-family:LMMathItalic7;font-style:italic;font-variant:normal;font-weight:normal;font-size:6.97384807;writing-mode:lr;-inkscape-font-specification:LMMathItalic7-Regular"
         x="0"
         y="0"
         id="tspan3254">n</tspan></text>
<text
       transform="matrix(0,1,1,0,8.9654903,73.387417)"
       id="text3256"><tspan
         style="fill:#000000;fill-opacity:1;fill-rule:nonzero;stroke:none;font-family:MnSymbol;font-variant:normal;font-weight:normal;font-size:9.9626401;writing-mode:lr;-inkscape-font-specification:MnSymbol10"
         x="0"
         y="0"
         id="tspan3258">(</tspan></text>
<text
       transform="matrix(0,1,1,0,8.9654903,77.814192)"
       id="text3260"><tspan
         style="fill:#000000;fill-opacity:1;fill-rule:nonzero;stroke:none;font-family:LMMathItalic10;font-style:italic;font-variant:normal;font-weight:normal;font-size:9.9626401;writing-mode:lr;-inkscape-font-specification:LMMathItalic10-Regular"
         x="0"
         y="0"
         id="tspan3262">r</tspan></text>
<text
       transform="matrix(0,1,1,0,8.9654903,82.585666)"
       id="text3264"><tspan
         style="fill:#000000;fill-opacity:1;fill-rule:nonzero;stroke:none;font-family:MnSymbol;font-variant:normal;font-weight:normal;font-size:9.9626401;writing-mode:lr;-inkscape-font-specification:MnSymbol10"
         x="0"
         y="0"
         id="tspan3266">)</tspan></text>
<path
       d="m 33.130256,136.08421 197.532004,0"
       style="fill:none;stroke:#000000;stroke-opacity:1;stroke-width:1;stroke-linecap:square;stroke-linejoin:round;stroke-miterlimit:10;stroke-dasharray:none"
       id="path3268" /><path
       d="m 230.66226,13.741815 0,122.342395"
       style="fill:none;stroke:#000000;stroke-opacity:1;stroke-width:1;stroke-linecap:square;stroke-linejoin:round;stroke-miterlimit:10;stroke-dasharray:none"
       id="path3270" /><path
       d="m 33.130256,13.741815 197.532004,0"
       style="fill:none;stroke:#000000;stroke-opacity:1;stroke-width:1;stroke-linecap:square;stroke-linejoin:round;stroke-miterlimit:10;stroke-dasharray:none"
       id="path3272" /><path
       d="m 33.130256,13.741815 0,122.342395"
       style="fill:none;stroke:#000000;stroke-opacity:1;stroke-width:1;stroke-linecap:square;stroke-linejoin:round;stroke-miterlimit:10;stroke-dasharray:none"
       id="path3274" /><text
       transform="matrix(1,0,0,-1,37.080896,121.00072)"
       id="text3276"><tspan
         style="fill:#000000;fill-opacity:1;fill-rule:nonzero;stroke:none;font-family:LMRoman12;font-variant:normal;font-weight:normal;font-size:11.95516812;writing-mode:lr;-inkscape-font-specification:LMRoman12-Regular"
         x="0 8.7750934"
         y="0"
         sodipodi:role="line"
         id="tspan3278">A)</tspan></text>
</g></svg>