<?xml version="1.0" encoding="UTF-8" standalone="no"?>
<!-- Created with Inkscape (http://www.inkscape.org/) -->

<svg
   xmlns:dc="http://purl.org/dc/elements/1.1/"
   xmlns:cc="http://creativecommons.org/ns#"
   xmlns:rdf="http://www.w3.org/1999/02/22-rdf-syntax-ns#"
   xmlns:svg="http://www.w3.org/2000/svg"
   xmlns="http://www.w3.org/2000/svg"
   xmlns:xlink="http://www.w3.org/1999/xlink"
   xmlns:sodipodi="http://sodipodi.sourceforge.net/DTD/sodipodi-0.dtd"
   xmlns:inkscape="http://www.inkscape.org/namespaces/inkscape"
   width="944.09003"
   height="752.35999"
   id="svg2"
   version="1.1"
   inkscape:version="0.48.4 r9939"
   sodipodi:docname="lgdef.pdf">
  <sodipodi:namedview
     id="base"
     pagecolor="#ffffff"
     bordercolor="#666666"
     borderopacity="1.0"
     inkscape:pageopacity="0.0"
     inkscape:pageshadow="2"
     inkscape:zoom="0.5"
     inkscape:cx="878.52573"
     inkscape:cy="344.50592"
     inkscape:document-units="px"
     inkscape:current-layer="g4429"
     showgrid="false"
     inkscape:window-width="1024"
     inkscape:window-height="718"
     inkscape:window-x="0"
     inkscape:window-y="0"
     inkscape:window-maximized="1">
    <inkscape:grid
       snapvisiblegridlinesonly="true"
       enabled="true"
       visible="true"
       empspacing="5"
       id="grid7731"
       type="xygrid" />
  </sodipodi:namedview>
  <defs
     id="defs4">
    <linearGradient
       id="linearGradient3877"
       inkscape:collect="always">
      <stop
         id="stop3879"
         offset="0"
         style="stop-color:#cccccc;stop-opacity:1;" />
      <stop
         id="stop3881"
         offset="1"
         style="stop-color:#cccccc;stop-opacity:0;" />
    </linearGradient>
    <linearGradient
       id="linearGradient3867"
       inkscape:collect="always">
      <stop
         id="stop3869"
         offset="0"
         style="stop-color:#666666;stop-opacity:1;" />
      <stop
         id="stop3871"
         offset="1"
         style="stop-color:#666666;stop-opacity:0;" />
    </linearGradient>
    <marker
       style="overflow:visible"
       id="Arrow1Lstart"
       refX="0"
       refY="0"
       orient="auto"
       inkscape:stockid="Arrow1Lstart">
      <path
         inkscape:connector-curvature="0"
         transform="matrix(0.8,0,0,0.8,10,0)"
         style="fill-rule:evenodd;stroke:#000000;stroke-width:1pt"
         d="M 0,0 5,-5 -12.5,0 5,5 0,0 z"
         id="path3875" />
    </marker>
    <marker
       style="overflow:visible"
       id="Arrow1Lend"
       refX="0"
       refY="0"
       orient="auto"
       inkscape:stockid="Arrow1Lend">
      <path
         inkscape:connector-curvature="0"
         transform="matrix(-0.8,0,0,-0.8,-10,0)"
         style="fill-rule:evenodd;stroke:#000000;stroke-width:1pt"
         d="M 0,0 5,-5 -12.5,0 5,5 0,0 z"
         id="path3878" />
    </marker>
    <linearGradient
       y2="498.05725"
       x2="188.1098"
       y1="507.0181"
       x1="604.91614"
       gradientUnits="userSpaceOnUse"
       id="linearGradient4468"
       xlink:href="#linearGradient3877"
       inkscape:collect="always" />
    <linearGradient
       y2="499.83325"
       x2="63.387478"
       y1="494.53311"
       x1="549.66486"
       gradientUnits="userSpaceOnUse"
       id="linearGradient4470"
       xlink:href="#linearGradient3867"
       inkscape:collect="always" />
  </defs>
  <metadata
     id="metadata7">
    <rdf:RDF>
      <cc:Work
         rdf:about="">
        <dc:format>image/svg+xml</dc:format>
        <dc:type
           rdf:resource="http://purl.org/dc/dcmitype/StillImage" />
        <dc:title></dc:title>
      </cc:Work>
    </rdf:RDF>
  </metadata>
  <g
     transform="translate(0,-300.00217)"
     id="layer1"
     inkscape:groupmode="layer"
     inkscape:label="Layer 1">
    <g
       transform="translate(-359.21025,-14.142136)"
       id="g4429">
      <g
         id="g4672">
        <path
           sodipodi:open="true"
           sodipodi:end="8.0929927"
           sodipodi:start="4.488333"
           transform="matrix(-1.3213544,0,0,-1.0691218,1493.908,1205.1353)"
           d="M 183.2753,101.16401 C 369.2218,50.940579 554.31205,188.88959 596.68593,409.28176 639.05981,629.67393 522.67121,849.05122 336.7247,899.27465 284.5219,913.37442 230.26796,912.89358 178.2489,897.8701"
           sodipodi:ry="409.28571"
           sodipodi:rx="345.31738"
           sodipodi:cy="500.21933"
           sodipodi:cx="260"
           id="path2985-8"
           style="fill:url(#linearGradient4468);fill-opacity:1;fill-rule:evenodd;stroke:#000000;stroke-width:0;stroke-linecap:butt;stroke-linejoin:miter;stroke-miterlimit:4;stroke-opacity:1;stroke-dasharray:none"
           sodipodi:type="arc" />
        <path
           sodipodi:open="true"
           sodipodi:end="8.20273"
           sodipodi:start="4.3909164"
           transform="matrix(-0.87160425,0,0,-0.79817879,1374.9269,1076.8025)"
           d="m 142.19055,111.90085 c 195.3741,-71.42122 406.5012,44.53654 471.56556,258.99891 65.06436,214.46238 -40.57255,446.21682 -235.94666,517.63805 -79.77958,29.16433 -166.19754,27.87054 -245.22286,-3.6713"
           sodipodi:ry="409.28571"
           sodipodi:rx="372.85715"
           sodipodi:cy="500.21933"
           sodipodi:cx="260"
           id="path2985-9"
           style="fill:#ffffff;fill-rule:evenodd;stroke:#000000;stroke-width:0;stroke-linecap:butt;stroke-linejoin:miter;stroke-miterlimit:4;stroke-opacity:1;stroke-dasharray:none"
           sodipodi:type="arc" />
        <path
           sodipodi:open="true"
           sodipodi:end="8.4126789"
           sodipodi:start="4.1596198"
           transform="matrix(-0.53982179,0,0,-0.49434623,1292.9015,925.99021)"
           d="M 64.23284,151.88697 C 239.48879,33.204388 469.20975,92.946852 577.32896,285.3255 685.44818,477.70415 631.02311,729.8691 455.76716,848.55169 335.07809,930.28181 182.60071,929.7857 62.355138,847.27166"
           sodipodi:ry="409.28571"
           sodipodi:rx="372.85715"
           sodipodi:cy="500.21933"
           sodipodi:cx="260"
           id="path2985"
           style="fill:url(#linearGradient4470);fill-opacity:1;fill-rule:evenodd;stroke:#000000;stroke-width:0;stroke-linecap:butt;stroke-linejoin:miter;stroke-miterlimit:4;stroke-opacity:1;stroke-dasharray:none"
           sodipodi:type="arc" />
        <path
           style="font-style:normal;font-variant:normal;font-weight:normal;font-stretch:normal;letter-spacing:normal;word-spacing:normal;text-anchor:start;fill:#000000;stroke:#000000;stroke-width:0;stroke-linecap:butt;stroke-linejoin:miter;stroke-miterlimit:10.43299961;stroke-opacity:1;stroke-dasharray:none;stroke-dashoffset:0"
           inkscape:connector-curvature="0"
           id="path8117"
           d="m 755.53328,631.00494 0.008,-0.50583 0.005,-0.49516 -0.0267,-0.5028 -0.0318,-0.48146 -0.045,-0.47332 -0.0689,-0.46775 -0.0796,-0.47029 -0.0953,-0.45149 -0.10856,-0.44336 -0.12179,-0.43524 -0.135,-0.42711 -0.14011,-0.40576 -0.16399,-0.40018 -0.17722,-0.39205 -0.19045,-0.38393 -0.19553,-0.36257 -0.20876,-0.35445 -0.22453,-0.33565 -0.23775,-0.32752 -0.24285,-0.30617 -0.25607,-0.29804 -0.27183,-0.27925 -0.27694,-0.25789 -0.29015,-0.24976 -0.30592,-0.23097 -0.31102,-0.20961 -0.31357,-0.19894 -0.32934,-0.18014 -0.34765,-0.15066 -0.33952,-0.13744 -0.3553,-0.11864 -0.37107,-0.0998 c -4.62212,-1.10305 -10.15733,2.75469 -11.80553,9.66119 l 1.56286,0.77914 c 1.23551,-5.1772 6.1916,-5.94634 9.0097,-5.27381 3.40522,0.81264 7.25631,4.48464 5.84756,10.38772 l -1.83926,7.70709 1.16353,0.27767 2.38443,-9.99146 c 1.25844,-5.27328 6.7439,-6.32225 10.29855,-5.47395 3.7895,0.90435 7.47429,4.7059 6.16744,10.18199 h 0 l -1.58707,6.6503 c -0.5961,2.49787 -0.98452,2.518 -2.73516,2.10021 l -14.52819,-3.46709 -1.16353,-0.27767 -13.07644,-3.12064 c -1.77199,-0.42288 -2.10945,-0.61624 -1.51335,-3.1141 l 1.57179,-6.58626 -1.56286,-0.77914 -4.64402,19.45987 1.65457,0.39486 0.3006,-1.25961 c 0.98077,-4.10974 1.58013,-4.06825 3.50156,-3.6097 l 28.02094,6.68708 c 1.92143,0.45854 2.47494,0.69218 1.49416,4.80191 l -0.3006,1.25961 1.65457,0.39486 4.97519,-20.84758 c 1.68642,-7.06661 -1.90931,-12.9906 -6.90504,-14.18281 -4.62212,-1.10305 -9.6589,2.3208 -11.69745,8.07358 z" />
        <path
           style="font-style:normal;font-variant:normal;font-weight:normal;font-stretch:normal;letter-spacing:normal;word-spacing:normal;text-anchor:start;fill:#000000;stroke:#000000;stroke-width:0;stroke-linecap:butt;stroke-linejoin:miter;stroke-miterlimit:10.43299961;stroke-opacity:1;stroke-dasharray:none;stroke-dashoffset:0"
           inkscape:connector-curvature="0"
           id="path8119"
           d="m 777.8807,603.55087 0.20791,0.0271 0.19979,0.0138 0.21301,0.006 0.20233,0.003 0.21556,-0.005 0.20488,-0.008 0.20997,-0.0289 0.20743,-0.0182 0.21252,-0.0395 0.20185,-0.0421 0.21507,-0.0502 0.19373,-0.0553 0.19626,-0.066 0.19882,-0.0767 0.19882,-0.0767 0.18001,-0.0924 0.18256,-0.10311 0.18257,-0.1031 0.17443,-0.11633 0.16376,-0.11888 0.16631,-0.12955 0.1475,-0.14532 0.14751,-0.14532 0.13938,-0.15854 0.13125,-0.17176 0.12058,-0.17431 0.11245,-0.18754 0.10177,-0.19008 0.0937,-0.2033 0.083,-0.20585 0.0749,-0.21907 0.0667,-0.2323 c 0.26238,-1.09949 0.28146,-4.53612 -4.02042,-5.56275 l -2.96755,-0.70819 -0.31843,1.33433 2.96755,0.70819 c 3.08497,0.73622 3.09187,2.12562 2.94666,2.73408 -0.41778,1.75064 -2.84917,1.39605 -3.11604,1.33236 L 768.07607,597.736 c -2.24167,-0.53496 -4.30188,-1.02662 -6.73013,0.40218 -2.55951,1.60057 -4.04525,4.04409 -4.6541,6.59533 -1.04191,4.36593 0.56896,8.63156 4.08091,9.46968 1.59053,0.37957 2.76329,-0.46882 3.09191,-1.84584 0.35665,-1.49445 -0.48154,-2.70992 -1.86925,-3.04109 -0.6298,-0.1503 -2.44413,-0.30121 -3.10222,2.12545 -1.50535,-1.87112 -1.47088,-4.61584 -1.06583,-6.31311 0.62412,-2.61528 3.41594,-5.142 8.15548,-4.01093 l 1.96413,0.46873 1.12084,0.26749 5.31597,1.26863 c 5.05978,1.2075 5.94113,5.45699 5.36795,7.85879 -0.61903,2.59394 -3.00932,4.33643 -5.65663,3.70466 -2.91418,-0.69546 -6.81174,-3.98365 -5.02729,-12.83208 h 0 l -1.12084,-0.26749 c -0.49506,2.73635 -1.21078,6.49189 -0.40949,10.22584 0.85127,4.42284 3.29757,6.41696 5.63531,6.97486 4.30188,1.02662 6.86664,-3.8108 7.66654,-7.16263 0.84066,-3.52264 -0.70277,-6.4634 -2.95863,-8.0736 z" />
        <path
           style="font-style:normal;font-variant:normal;font-weight:normal;font-stretch:normal;letter-spacing:normal;word-spacing:normal;text-anchor:start;fill:#000000;stroke:#000000;stroke-width:0;stroke-linecap:butt;stroke-linejoin:miter;stroke-miterlimit:10.43299961;stroke-opacity:1;stroke-dasharray:none;stroke-dashoffset:0"
           inkscape:connector-curvature="0"
           id="path8121"
           d="m 768.49835,582.49247 -5.82836,-1.39092 -1.18641,7.52442 1.65457,0.39485 c 0.88652,-3.71477 1.35135,-4.05514 3.95596,-3.43356 l 14.26133,3.4034 c 2.38044,0.56809 2.24288,1.14452 1.39203,4.70985 l 1.65457,0.39485 c 0.44338,-2.09429 0.91951,-4.6095 1.27616,-6.10395 0.50694,-2.12426 1.10305,-4.62212 1.78334,-6.71629 l -1.65457,-0.39486 -0.26749,1.12084 c -0.93746,3.92827 -1.54192,3.90813 -3.46335,3.44958 l -8.18745,-1.9539 c -5.25193,-1.25335 -9.45905,-4.61542 -8.49101,-8.67179 0.0866,-0.36293 0.11209,-0.46968 0.19093,-0.56369 0.004,0.17031 0.39022,1.39062 1.76725,1.71925 1.50513,0.35919 2.55186,-0.57569 2.83208,-1.7499 0.22927,-0.96071 -0.0821,-2.44534 -1.77937,-2.85039 -1.70794,-0.40759 -3.62927,0.88269 -4.17443,3.16706 -0.92727,3.88557 2.15816,6.65276 4.26422,7.94515 z" />
        <path
           style="font-style:normal;font-variant:normal;font-weight:normal;font-stretch:normal;letter-spacing:normal;word-spacing:normal;text-anchor:start;fill:#000000;stroke:#000000;stroke-width:0;stroke-linecap:butt;stroke-linejoin:miter;stroke-miterlimit:10.43299961;stroke-opacity:1;stroke-dasharray:none;stroke-dashoffset:0"
           inkscape:connector-curvature="0"
           id="path8123"
           d="m 773.47863,561.62354 -5.82835,-1.39091 -1.18642,7.52441 1.65457,0.39486 c 0.88907,-3.72545 1.3539,-4.06582 3.95852,-3.44424 l 14.26132,3.4034 c 2.38044,0.56809 2.24288,1.14452 1.38948,4.72052 l 1.65457,0.39486 c 0.44593,-2.10497 0.91952,-4.60951 1.27871,-6.11463 0.50695,-2.12426 1.10305,-4.62212 1.78334,-6.71629 l -1.65457,-0.39486 -0.26749,1.12084 c -0.94001,3.93894 -1.54191,3.90813 -3.46335,3.44958 l -8.18745,-1.9539 c -5.25192,-1.25335 -9.45905,-4.61542 -8.49101,-8.67178 0.0866,-0.36294 0.10954,-0.45901 0.19094,-0.5637 0.004,0.17031 0.39021,1.39062 1.76724,1.71925 1.50513,0.35919 2.54931,-0.56501 2.83208,-1.7499 0.22672,-0.95004 -0.0847,-2.43467 -1.78191,-2.83972 -1.70795,-0.40759 -3.62673,0.87202 -4.17189,3.15639 -0.92982,3.89625 2.15817,6.65276 4.26167,7.95582 z" />
        <path
           style="font-style:normal;font-variant:normal;font-weight:normal;font-stretch:normal;letter-spacing:normal;word-spacing:normal;text-anchor:start;fill:#000000;stroke:#000000;stroke-width:0;stroke-linecap:butt;stroke-linejoin:miter;stroke-miterlimit:10.43299961;stroke-opacity:1;stroke-dasharray:none;stroke-dashoffset:0"
           inkscape:connector-curvature="0"
           id="path8125"
           d="m 772.76048,538.8193 -1.1966,7.56711 1.65457,0.39486 c 0.82283,-3.44791 1.2577,-3.85185 3.85164,-3.23282 l 14.3147,3.41615 c 2.38044,0.56808 2.24033,1.15519 1.38948,4.72052 l 1.65457,0.39485 c 0.35167,-1.71 0.91952,-4.6095 1.22776,-5.90113 0.44581,-1.86807 1.00394,-3.68676 1.49038,-5.48871 l -1.65457,-0.39486 c -0.83812,3.51196 -1.15848,3.67244 -3.21868,3.18078 z" />
        <path
           style="font-style:normal;font-variant:normal;font-weight:normal;font-stretch:normal;letter-spacing:normal;word-spacing:normal;text-anchor:start;fill:#000000;stroke:#000000;stroke-width:0;stroke-linecap:butt;stroke-linejoin:miter;stroke-miterlimit:10.43299961;stroke-opacity:1;stroke-dasharray:none;stroke-dashoffset:0"
           inkscape:connector-curvature="0"
           id="path8127"
           d="m 763.54839,536.38393 -0.15199,-0.025 -0.16267,-0.0275 -0.15454,-0.0143 -0.15454,-0.0143 -0.14641,-10e-4 -0.14896,0.01 -0.14896,0.01 -0.14084,0.0228 -0.14083,0.0228 -0.14593,0.0442 -0.1327,0.036 -0.12458,0.0493 -0.12713,0.0599 -0.12713,0.0599 -0.12712,0.0599 -0.10833,0.0757 -0.12154,0.0838 -0.10833,0.0757 -0.10019,0.0889 -0.10275,0.0996 -0.1002,0.0889 -0.0946,0.11281 -0.0814,0.10468 -0.0814,0.10469 -0.0733,0.1179 -0.0733,0.11791 -0.0651,0.13113 -0.0626,0.12045 -0.0545,0.13367 -0.0438,0.13623 -0.0412,0.12555 -0.0438,0.13622 c -0.39485,1.65457 0.766,3.17269 2.14303,3.50131 1.44108,0.34391 3.09833,-0.50168 3.49318,-2.15625 0.3541,-1.48378 -0.43763,-3.08304 -2.14557,-3.49064 z" />
        <path
           style="font-style:normal;font-variant:normal;font-weight:normal;font-stretch:normal;letter-spacing:normal;word-spacing:normal;text-anchor:start;fill:#000000;stroke:#000000;stroke-width:0;stroke-linecap:butt;stroke-linejoin:miter;stroke-miterlimit:10.43299961;stroke-opacity:1;stroke-dasharray:none;stroke-dashoffset:0"
           inkscape:connector-curvature="0"
           id="path8129"
           d="m 786.64878,530.2644 -1.1081,-0.32085 c -7.84671,-2.19978 -8.10298,-6.98834 -7.66991,-8.80303 1.30685,-5.47609 8.60758,-4.29793 10.67846,-3.80372 l -3.00855,12.60675 1.1081,0.32085 3.54097,-14.83775 c 0.28022,-1.17421 0.31589,-1.32365 -0.80495,-1.59114 -5.25192,-1.25335 -11.09304,0.38771 -12.67756,7.02734 -1.47244,6.16994 2.8237,12.3739 9.48467,13.96351 7.11999,1.69916 13.60816,-2.65325 15.07041,-8.7805 1.5463,-6.47951 -3.78614,-10.27937 -4.78956,-10.51883 -0.53373,-0.12738 -0.7505,0.26091 -0.81419,0.52778 -0.11463,0.48036 0.18013,0.66353 0.57909,0.88285 5.03538,3.15356 3.89157,7.94647 3.7642,8.4802 -0.63686,2.66866 -2.73178,4.40267 -4.98633,5.15085 -2.93336,0.99235 -6.45599,0.15169 -8.36675,-0.30431 z" />
        <path
           style="font-style:normal;font-variant:normal;font-weight:normal;font-stretch:normal;letter-spacing:normal;word-spacing:normal;text-anchor:start;fill:#000000;stroke:#000000;stroke-width:0;stroke-linecap:butt;stroke-linejoin:miter;stroke-miterlimit:10.43299961;stroke-opacity:1;stroke-dasharray:none;stroke-dashoffset:0"
           inkscape:connector-curvature="0"
           id="path8131"
           d="m 787.60175,502.44332 -5.82836,-1.39091 -1.18641,7.52442 1.65457,0.39485 c 0.88652,-3.71477 1.3539,-4.06582 3.95851,-3.44424 l 14.26133,3.40341 c 2.38044,0.56808 2.24033,1.15519 1.38948,4.72052 l 1.65457,0.39485 c 0.44338,-2.09429 0.91952,-4.6095 1.27616,-6.10395 0.50695,-2.12426 1.10305,-4.62212 1.78334,-6.71629 l -1.65457,-0.39486 -0.26748,1.12084 c -0.93747,3.92827 -1.54192,3.90813 -3.46336,3.44958 l -8.18745,-1.9539 c -5.25192,-1.25335 -9.45904,-4.61542 -8.49101,-8.67179 0.0866,-0.36293 0.11209,-0.46968 0.19348,-0.57436 0.002,0.18098 0.38768,1.40129 1.7647,1.72991 1.50513,0.3592 2.55186,-0.57568 2.83463,-1.76056 0.22672,-0.95004 -0.0846,-2.43467 -1.78192,-2.83972 -1.70794,-0.40759 -3.62927,0.88269 -4.17443,3.16706 -0.92727,3.88557 2.15817,6.65276 4.26422,7.94514 z" />
        <path
           d="m 1135.6275,634.08067 -3.2995,6.39055 c -1.6064,3.10986 -4.9791,4.47815 -8.0603,3.72608 -3.7208,-0.90821 -6.2618,-4.56723 -5.2495,-8.71451 2.1625,-8.85963 11.1591,-7.90629 13.636,-7.64061 0.3302,0.0354 0.6394,0.11089 0.7852,-0.48614 0.1691,-0.69299 -0.097,-0.75805 -1.1103,-1.00527 l -10.6614,-2.60232 c -0.9168,-0.2238 -1.2793,-0.31228 -1.4225,0.2741 -0.091,0.37315 -0.064,0.44752 0.4979,0.96875 l 2.5643,2.59154 c -1.9256,1.22448 -4.6314,2.86853 -5.7868,7.60219 -1.4391,5.89576 2.1561,11.48398 7.7853,12.858 4.3925,1.07216 8.9603,-0.79521 11.4067,-4.56986 0.3563,-0.53433 1.6489,-3.09945 3.4608,-6.58842 0.7325,-1.33494 1.4853,-2.84567 3.8088,-3.84878 1.6592,-0.78115 3.5378,-0.88744 5.2862,-0.46066 3.7848,0.92383 6.9562,4.49948 5.8659,8.96661 -0.3774,1.5459 -1.6276,5.51086 -4.9186,7.70116 -3.62,2.38112 -7.0493,1.71351 -8.9814,1.2984 -0.5461,-0.0768 -0.6476,0.33898 -0.6866,0.4989 -0.1665,0.68233 0.2173,0.77601 1.1661,1.00762 l 10.6294,2.59451 c 0.8956,0.2186 1.2581,0.30708 1.3986,-0.26864 0.091,-0.37315 0.01,-0.43921 -0.4897,-0.95549 -0.043,-0.0104 -0.1742,-0.21197 -2.5621,-2.64745 2.2052,-1.21273 4.9437,-4.1479 6.0991,-8.88156 1.5146,-6.20493 -2.6392,-11.72616 -8.4816,-13.15223 -5.3201,-1.29856 -10.5235,1.13663 -12.68,5.34353 z"
           id="path8227"
           inkscape:connector-curvature="0"
           style="font-style:normal;font-variant:normal;font-weight:normal;font-stretch:normal;letter-spacing:normal;word-spacing:normal;text-anchor:start;fill:#000000;stroke:#000000;stroke-width:0;stroke-linecap:butt;stroke-linejoin:miter;stroke-miterlimit:10.43299961;stroke-opacity:1;stroke-dasharray:none;stroke-dashoffset:0" />
        <path
           d="m 1137.7511,612.97733 -1.2381,7.57152 1.6525,0.40336 c 0.8431,-3.45429 1.2801,-3.85599 3.8708,-3.22363 l 14.2969,3.48971 c 2.3775,0.58032 2.2344,1.1667 1.3652,4.72761 l 1.6526,0.40336 c 0.3604,-1.70818 0.9432,-4.60472 1.2554,-5.88409 0.4555,-1.86574 1.0255,-3.6922 1.5212,-5.49163 l -1.6525,-0.40336 c -0.8588,3.51826 -1.1773,3.66643 -3.235,3.16419 z"
           id="path8229"
           inkscape:connector-curvature="0"
           style="font-style:normal;font-variant:normal;font-weight:normal;font-stretch:normal;letter-spacing:normal;word-spacing:normal;text-anchor:start;fill:#000000;stroke:#000000;stroke-width:0;stroke-linecap:butt;stroke-linejoin:miter;stroke-miterlimit:10.43299961;stroke-opacity:1;stroke-dasharray:none;stroke-dashoffset:0" />
        <path
           d="m 1128.549,610.50529 -0.1492,-0.0364 -0.1626,-0.0284 -0.1544,-0.0151 -0.1545,-0.0151 -0.1464,-0.002 -0.149,0.009 -0.149,0.009 -0.141,0.0221 -0.1435,0.0327 -0.1436,0.0327 -0.1328,0.0353 -0.1249,0.0486 -0.1274,0.0593 -0.1274,0.0593 -0.1301,0.0699 -0.1061,0.0645 -0.122,0.0832 -0.1113,0.0858 -0.1006,0.0884 -0.1007,0.0884 -0.1032,0.0991 -0.093,0.10166 -0.082,0.10426 -0.085,0.11493 -0.074,0.11753 -0.074,0.11752 -0.063,0.12013 -0.063,0.12013 -0.055,0.1334 -0.044,0.13599 -0.045,0.136 -0.044,0.136 c -0.4008,1.64185 0.7523,3.16592 2.1276,3.50162 1.4393,0.35131 3.1009,-0.48575 3.5016,-2.1276 0.3617,-1.48194 -0.4217,-3.08525 -2.1276,-3.50162 z"
           id="path8231"
           inkscape:connector-curvature="0"
           style="font-style:normal;font-variant:normal;font-weight:normal;font-stretch:normal;letter-spacing:normal;word-spacing:normal;text-anchor:start;fill:#000000;stroke:#000000;stroke-width:0;stroke-linecap:butt;stroke-linejoin:miter;stroke-miterlimit:10.43299961;stroke-opacity:1;stroke-dasharray:none;stroke-dashoffset:0" />
        <path
           d="m 1145.6678,603.08217 14.2436,3.4767 c 2.3775,0.58032 2.2344,1.16669 1.3652,4.7276 l 1.6525,0.40336 c 0.4021,-1.87876 0.9433,-4.60472 1.292,-6.03334 0.3383,-1.38599 1.1295,-4.11866 1.6226,-5.90743 l -1.6525,-0.40336 c -0.8665,3.55025 -1.0071,4.12596 -3.3846,3.54565 l -9.7765,-2.38633 c -5.5332,-1.3506 -7.5785,-5.83752 -6.7483,-9.23851 0.8171,-3.34768 3.8255,-3.22337 6.8534,-2.48431 l 12.3778,3.02129 c 2.3775,0.58032 2.237,1.15603 1.3652,4.7276 l 1.6526,0.40336 c 0.4021,-1.87875 0.9484,-4.62604 1.2971,-6.05466 0.3383,-1.38599 1.127,-4.108 1.6227,-5.90743 l -1.6526,-0.40336 c -0.674,2.76131 -0.9993,4.09398 -2.6115,3.75694 l -10.139,-2.47481 c -4.563,-1.11379 -6.2156,-1.51715 -8.5167,-0.32784 -1.0938,0.50117 -2.5706,2.01594 -3.3201,5.08642 -0.9472,3.88075 0.7254,6.93241 3.6367,9.21326 l -5.5546,-1.35581 -1.2537,7.63549 1.6525,0.40336 c 0.9056,-3.71017 1.3748,-4.0588 3.9762,-3.42384 z"
           id="path8233"
           inkscape:connector-curvature="0"
           style="font-style:normal;font-variant:normal;font-weight:normal;font-stretch:normal;letter-spacing:normal;word-spacing:normal;text-anchor:start;fill:#000000;stroke:#000000;stroke-width:0;stroke-linecap:butt;stroke-linejoin:miter;stroke-miterlimit:10.43299961;stroke-opacity:1;stroke-dasharray:none;stroke-dashoffset:0" />
        <path
           d="m 1167.0704,577.22936 0.1066,0.026 0.1066,0.026 0.2026,0.0495 0.1893,0.0575 0.1761,0.0656 0.1573,0.0497 0.1521,0.071 0.1308,0.0658 0.1201,0.0632 0.1069,0.0713 0.1042,0.0819 0.08,0.0874 0.08,0.0874 0.064,0.10611 0.054,0.1035 0.041,0.11157 0.027,0.11963 0.025,0.13028 0.025,0.13029 0,0.14641 0,0.17033 -0.018,0.16512 -0.01,0.17839 -0.036,0.19451 -0.013,0.0986 -0.015,0.10922 -0.015,0.10922 -0.026,0.10661 -0.018,0.11988 -0.026,0.10661 -0.031,0.12794 -0.018,0.11988 -0.031,0.12793 -0.034,0.1386 -0.034,0.1386 -0.034,0.1386 -0.034,0.1386 -0.037,0.14926 -0.036,0.14926 -0.039,0.15992 -0.039,0.15992 -0.039,0.15992 1.6525,0.40336 c 0.3761,-1.77215 0.8652,-4.28488 1.2425,-5.83078 0.3877,-1.58855 0.9828,-3.70261 1.5993,-5.81147 l -1.6526,-0.40336 c -0.8717,3.57157 -1.0123,4.14728 -3.3898,3.56697 l -5.4799,-1.33759 -2.0937,-4.10337 c 6.6366,-2.70669 10.1443,-4.21147 11.1038,-3.97726 1.0022,0.24461 0.9969,1.19222 0.7522,2.19439 l 1.6526,0.40336 c 0.311,-1.50561 0.9562,-4.65802 1.2294,-5.77747 0.3748,-1.53524 0.8267,-3.06293 1.2974,-4.57475 l -1.6525,-0.40336 c -0.4814,1.97236 -0.7651,3.13445 -4.0715,4.46244 l -11.1573,4.4274 c -0.1089,0.0299 -0.4938,0.21835 -0.6644,0.17672 -0.1919,-0.0469 -2.4717,-4.59102 -2.7574,-5.22558 -1.8989,-4.02193 -1.451,-6.27358 -1.2311,-7.40604 l -1.6525,-0.40336 c -0.2255,1.57167 -0.3972,2.27533 -0.7589,3.75726 -0.4685,1.91905 -1.3685,5.19001 -1.6014,5.91263 l 1.6525,0.40336 c 0.298,-0.98916 1.0038,-1.3817 1.6861,-1.21516 1.0662,0.26024 1.5263,1.15201 1.806,1.67215 l 4.642,9.07457 -25.502,-6.22474 -1.2795,7.78735 1.6525,0.40336 c 0.9056,-3.71017 1.3722,-4.04815 3.9842,-3.41058 z"
           id="path8235"
           inkscape:connector-curvature="0"
           style="font-style:normal;font-variant:normal;font-weight:normal;font-stretch:normal;letter-spacing:normal;word-spacing:normal;text-anchor:start;fill:#000000;stroke:#000000;stroke-width:0;stroke-linecap:butt;stroke-linejoin:miter;stroke-miterlimit:10.43299961;stroke-opacity:1;stroke-dasharray:none;stroke-dashoffset:0" />
        <path
           inkscape:connector-curvature="0"
           id="path7361"
           d="m 1153.2641,675.34554 -530.40226,0.37068"
           style="fill:none;stroke:#000000;stroke-width:1.71256196;stroke-linecap:butt;stroke-linejoin:miter;stroke-miterlimit:4;stroke-opacity:1;stroke-dasharray:none;marker-start:none;marker-end:url(#Arrow1Lend)" />
        <path
           id="path7776"
           d="m 939.28282,688.74874 0.51111,-0.009 0.53798,-0.009 0.5383,-0.0201 0.56549,-0.0314 0.56579,-0.0428 0.59298,-0.054 0.56641,-0.0655 0.5936,-0.0768 0.5939,-0.0881 0.59452,-0.1109 0.59482,-0.12228 0.59513,-0.13365 0.59575,-0.1564 0.56916,-0.16791 0.56948,-0.17929 0.57008,-0.20203 0.54382,-0.22492 0.54413,-0.2363 0.51785,-0.25917 0.49158,-0.28206 0.49189,-0.29343 0.43904,-0.32782 0.43935,-0.33919 0.41308,-0.36208 0.35992,-0.38508 0.36085,-0.41922 0.30738,-0.43085 0.28142,-0.4651 0.14086,-0.23824 0.11428,-0.24975 0.0874,-0.24987 0.1146,-0.26113 0.0877,-0.26125 0.0611,-0.27276 0.0883,-0.284 0.0346,-0.28426 c 0.14209,-0.28375 0.68591,-0.50866 1.49243,-0.50477 1.47862,0.007 1.46605,0.47354 1.44948,1.08783 -0.15308,5.67648 -7.09372,10.79683 -17.01517,10.79444 l -30.54031,-0.14747 c -5.21551,-0.0252 -9.54384,-0.0461 -14.01419,2.20777 -3.8978,1.96081 -4.25212,4.13215 -4.41998,5.37145 -0.14209,0.28374 -0.6856,0.49728 -1.49212,0.49339 -1.3442,-0.006 -1.335,-0.34776 -1.4272,-0.91707 -0.46394,-3.73395 -5.17599,-6.47585 -11.74571,-7.13332 -1.47372,-0.18915 -1.71568,-0.19032 -6.55481,-0.21368 l -26.5077,-0.12799 c -5.61877,-0.0271 -9.92022,-0.0479 -14.92799,-2.79123 -3.97341,-2.21498 -5.32391,-5.97597 -5.2644,-8.18286 0.0166,-0.61429 0.0291,-1.08069 1.48089,-1.07368 1.3442,0.006 1.33469,0.35914 1.45408,0.91719 0.44135,3.57457 4.66765,6.38239 11.44968,7.14328 1.20488,0.18785 1.44684,0.18902 6.28597,0.21238 l 28.14763,0.13591 c 6.18333,0.0299 8.42963,0.48441 12.65542,2.31379 2.79062,1.20808 4.09034,2.86404 5.09618,4.45033 3.19025,-4.63787 9.4282,-6.63288 17.19769,-6.59537 z"
           inkscape:connector-curvature="0"
           style="font-style:normal;font-variant:normal;font-weight:normal;font-stretch:normal;letter-spacing:normal;word-spacing:normal;text-anchor:start;fill:#000000;stroke:#000000;stroke-width:0;stroke-linecap:butt;stroke-linejoin:miter;stroke-miterlimit:10.43299961;stroke-opacity:1;stroke-dasharray:none;stroke-dashoffset:0" />
        <path
           id="path7776-3"
           d="m 808.71325,688.61711 0.50293,-0.009 0.52939,-0.009 0.52969,-0.0204 0.55645,-0.0317 0.55674,-0.0433 0.58351,-0.0546 0.55735,-0.0663 0.58411,-0.0776 0.58441,-0.0891 0.58501,-0.11215 0.58532,-0.12365 0.58561,-0.13516 0.58622,-0.15817 0.56007,-0.1698 0.56037,-0.1813 0.56098,-0.20431 0.53512,-0.22745 0.53543,-0.23896 0.50957,-0.26209 0.48372,-0.28523 0.48403,-0.29674 0.43202,-0.33151 0.43233,-0.34301 0.40647,-0.36615 0.35417,-0.38942 0.35508,-0.42394 0.30247,-0.4357 0.27692,-0.47034 0.13861,-0.24092 0.11245,-0.25256 0.086,-0.25269 0.11276,-0.26406 0.0863,-0.2642 0.0602,-0.27583 0.0869,-0.2872 0.034,-0.28746 c 0.13982,-0.28694 0.67494,-0.51439 1.46857,-0.51045 1.45499,0.007 1.44261,0.47887 1.42631,1.10008 -0.15063,5.74039 -6.98032,10.9184 -16.74317,10.91597 l -30.05209,-0.14912 c -5.13213,-0.0255 -9.39128,-0.0466 -13.79016,2.23263 -3.83549,1.98289 -4.18414,4.17867 -4.34932,5.43193 -0.13982,0.28694 -0.67464,0.50288 -1.46827,0.49895 -1.32271,-0.007 -1.31366,-0.35168 -1.40438,-0.9274 -0.45653,-3.776 -5.09325,-6.54877 -11.55795,-7.21364 -1.45016,-0.19128 -1.68825,-0.19246 -6.45002,-0.21609 l -26.08395,-0.12943 c -5.52895,-0.0274 -9.76164,-0.0484 -14.68936,-2.82265 -3.90988,-2.23993 -5.2388,-6.04327 -5.18023,-8.275 0.0163,-0.62121 0.0287,-1.09286 1.45721,-1.08577 1.32271,0.007 1.31335,0.36318 1.43083,0.92752 0.4343,3.61481 4.59303,6.45425 11.26665,7.2237 1.18562,0.18997 1.42371,0.19115 6.18548,0.21478 l 27.69766,0.13744 c 6.08449,0.0302 8.29488,0.48986 12.45312,2.33984 2.74601,1.22168 4.02495,2.89629 5.01471,4.50044 3.13925,-4.69009 9.27748,-6.70757 16.92277,-6.66963 z"
           inkscape:connector-curvature="0"
           style="font-style:normal;font-variant:normal;font-weight:normal;font-stretch:normal;letter-spacing:normal;word-spacing:normal;text-anchor:start;fill:#000000;stroke:#000000;stroke-width:0;stroke-linecap:butt;stroke-linejoin:miter;stroke-miterlimit:10.43299961;stroke-opacity:1;stroke-dasharray:none;stroke-dashoffset:0" />
        <path
           style="font-style:normal;font-variant:normal;font-weight:normal;font-stretch:normal;letter-spacing:normal;word-spacing:normal;text-anchor:start;fill:#000000;stroke:#000000;stroke-width:0;stroke-linecap:butt;stroke-linejoin:miter;stroke-miterlimit:10.43299961;stroke-opacity:1;stroke-dasharray:none;stroke-dashoffset:0"
           inkscape:connector-curvature="0"
           d="m 614.56305,709.14992 -0.019,0.0665 -0.01,0.076 -0.019,0.0665 -0.01,0.076 -0.038,0.15204 -0.038,0.15204 -0.0285,0.15204 -0.038,0.15204 -0.038,0.15204 -0.038,0.15204 -0.01,0.076 -0.019,0.0665 -0.019,0.0665 -0.01,0.0665 -0.019,0.0665 -0.01,0.0665 -0.01,0.057 -0.01,0.057 -0.01,0.057 -0.01,0.0475 -0.01,0.0475 -0.01,0.038 -0.01,0.038 0,0.038 0,0.0285 0,0.019 c 0,0.84573 0.66518,1.28284 1.35886,1.28284 0.57965,0 1.42538,-0.3706 1.75797,-1.32085 0.10452,-0.19955 1.71045,-6.64226 1.9005,-7.48798 0.3706,-1.55841 1.23533,-4.86529 1.5109,-6.15763 0.19955,-0.60816 1.5204,-2.84125 2.6417,-3.87703 0.3896,-0.32308 1.75797,-1.55841 3.80101,-1.55841 1.21632,0 1.92901,0.56065 1.97652,0.56065 -1.40637,0.23756 -2.45165,1.38736 -2.45165,2.60369 0,0.7507 0.52264,1.66294 1.79598,1.66294 1.28284,0 2.60369,-1.08329 2.60369,-2.79374 0,-1.66294 -1.52041,-3.06932 -3.92454,-3.06932 -3.08832,0 -5.15987,2.30912 -6.07211,3.62997 -0.3706,-2.11907 -2.07155,-3.62997 -4.30464,-3.62997 -2.16658,0 -3.06931,1.83399 -3.50643,2.67971 -0.84572,1.62493 -1.46339,4.45668 -1.46339,4.60872 0,0.47513 0.47513,0.47513 0.57966,0.47513 0.47512,0 0.51313,-0.0665 0.79821,-1.10229 0.79821,-3.35439 1.74846,-5.62549 3.45891,-5.62549 0.79821,0 1.47289,0.3706 1.47289,2.16657 0,0.99777 -0.15204,1.52991 -0.7602,3.98156 z"
           id="path8010" />
        <path
           style="font-style:normal;font-variant:normal;font-weight:normal;font-stretch:normal;letter-spacing:normal;word-spacing:normal;text-anchor:start;fill:#000000;stroke:#000000;stroke-width:0;stroke-linecap:butt;stroke-linejoin:miter;stroke-miterlimit:10.43299961;stroke-opacity:1;stroke-dasharray:none;stroke-dashoffset:0"
           inkscape:connector-curvature="0"
           id="path3307"
           d="m 894.45189,704.69769 0,0 0,-0.01 0,0 0,-0.01 0,-0.02 0,-0.01 -0.01,-0.02 0,-0.02 0,-0.02 -0.01,-0.02 0,-0.02 -0.01,-0.02 -0.01,-0.02 0,-0.03 -0.02,-0.02 -0.01,-0.03 -0.01,-0.02 -0.02,-0.03 -0.02,-0.02 -0.02,-0.02 -0.02,-0.03 -0.01,-0.01 -0.02,-0.01 -0.01,-0.01 -0.01,-0.01 -0.02,-0.01 -0.01,-0.01 -0.02,-0.01 -0.02,-0.01 -0.02,-0.01 -0.01,-0.01 -0.02,0 -0.02,-0.01 -0.02,-0.01 -0.03,0 -0.02,-0.01 -0.02,-0.01 -0.02,0 -0.03,0 -0.02,-0.01 -0.03,0 -0.03,0 -0.03,-0.01 -0.03,0 -0.03,0 c -1.13865,0 -4.77433,0.40951 -6.07278,0.49941 -0.38954,0.0499 -0.9289,0.0999 -0.9289,1.04875 0,0.54935 0.47943,0.54935 1.22854,0.54935 2.38716,0 2.44709,0.44946 2.44709,0.839 l -0.14982,0.99881 -6.27254,24.88042 c -0.13983,0.53936 -0.2497,0.89893 -0.2497,1.69798 0,2.82664 2.19738,4.57456 4.52462,4.57456 1.64804,0 2.88656,-0.99881 3.74554,-2.7767 0.88895,-1.90773 1.47825,-4.7943 1.47825,-4.88419 0,-0.49941 -0.42949,-0.49941 -0.5893,-0.49941 -0.49941,0 -0.54935,0.19977 -0.69917,0.89893 -0.84899,3.23616 -1.78788,6.16268 -3.7855,6.16268 -1.49822,0 -1.49822,-1.58811 -1.49822,-2.28728 0,-1.18859 0.0699,-1.43829 0.29964,-2.38716 z" />
        <path
           style="font-style:normal;font-variant:normal;font-weight:normal;font-stretch:normal;letter-spacing:normal;word-spacing:normal;text-anchor:start;fill:#000000;stroke:#000000;stroke-width:0;stroke-linecap:butt;stroke-linejoin:miter;stroke-miterlimit:10.43299961;stroke-opacity:1;stroke-dasharray:none;stroke-dashoffset:0"
           inkscape:connector-curvature="0"
           d="m 764.19348,717.27198 0.01,-0.0599 0.01,-0.0499 0.01,-0.0499 0.01,-0.0599 0.02,-0.0999 0.01,-0.0499 0.02,-0.0599 0.01,-0.0499 0.01,-0.0599 0.01,-0.0499 0,-0.0599 0.01,-0.0599 0,-0.0599 0.01,-0.03 0,-0.03 0,-0.03 0,-0.03 c 0,-0.85898 -0.5893,-1.35838 -1.43829,-1.35838 -0.49941,0 -1.83782,0.35957 -2.04757,2.15743 -0.88894,-1.8478 -2.63686,-3.13627 -4.61451,-3.13627 l 0.0499,1.08871 c 3.27611,0 3.97527,4.02521 3.97527,4.27492 0,0.2497 -0.0899,0.54934 -0.15981,0.7491 l -2.38716,9.5087 c -0.28965,1.28847 -1.4283,2.52699 -2.52699,3.47587 -1.03877,0.88894 -2.58693,1.79786 -4.03521,1.79786 -2.48704,0 -3.23615,-2.59691 -3.23615,-4.57456 0,-2.40714 1.44828,-8.27017 2.79668,-10.79716 1.33841,-2.45708 3.47586,-4.43473 5.57337,-4.43473 l -0.0499,-1.08871 c -5.68324,0 -11.84592,6.95174 -11.84592,14.12321 0,4.92415 3.02641,7.86065 6.62213,7.86065 2.92652,0 5.27373,-2.33722 5.77314,-2.88656 l 0.0399,0.0499 c -1.03877,4.42474 -1.63805,6.4723 -1.63805,6.57218 -0.19977,0.44947 -1.88776,5.3836 -7.16149,5.3836 -0.94887,0 -2.58692,-0.0699 -3.99525,-0.4994 1.49822,-0.45946 2.04757,-1.74793 2.04757,-2.59692 0,-0.78906 -0.54935,-1.74792 -1.88776,-1.74792 -1.09869,0 -2.6868,0.90892 -2.6868,2.88657 0,2.04757 1.83781,3.04638 6.61213,3.04638 6.21262,0 9.80834,-3.88538 10.55745,-6.87183 z"
           id="path3423" />
        <path
           style="font-style:normal;font-variant:normal;font-weight:normal;font-stretch:normal;letter-spacing:normal;word-spacing:normal;text-anchor:start;fill:#000000;stroke:#000000;stroke-width:0;stroke-linecap:butt;stroke-linejoin:miter;stroke-miterlimit:10.43299961;stroke-opacity:1;stroke-dasharray:none;stroke-dashoffset:0"
           inkscape:connector-curvature="0"
           d="m 779.12572,702.04009 0,0 0,-0.01 0,0 0,-0.01 0,-0.02 0,-0.01 -0.01,-0.02 0,-0.02 0,-0.02 -0.01,-0.02 0,-0.02 -0.01,-0.02 -0.01,-0.02 -0.01,-0.03 -0.01,-0.02 -0.01,-0.03 -0.01,-0.02 -0.02,-0.03 -0.02,-0.02 -0.02,-0.02 -0.02,-0.03 -0.01,-0.01 -0.02,-0.01 -0.01,-0.01 -0.02,-0.01 -0.01,-0.01 -0.02,-0.01 -0.01,-0.01 -0.02,-0.01 -0.02,-0.01 -0.02,-0.01 -0.01,0 -0.02,-0.01 -0.03,-0.01 -0.02,0 -0.02,-0.01 -0.02,-0.01 -0.03,0 -0.02,0 -0.03,-0.01 -0.02,0 -0.03,0 -0.03,-0.01 -0.03,0 -0.03,0 c -1.13865,0 -4.77433,0.40951 -6.07278,0.49941 -0.38954,0.0499 -0.9289,0.0999 -0.9289,1.04875 0,0.54935 0.47943,0.54935 1.22854,0.54935 2.38716,0 2.44709,0.44946 2.44709,0.839 l -0.14982,0.99881 -6.27254,24.88042 c -0.13984,0.53936 -0.24971,0.89893 -0.24971,1.69798 0,2.82664 2.19739,4.57456 4.52462,4.57456 1.64804,0 2.88657,-0.99881 3.74555,-2.7767 0.88894,-1.90773 1.47824,-4.7943 1.47824,-4.88419 0,-0.49941 -0.43948,-0.49941 -0.5893,-0.49941 -0.4994,0 -0.54934,0.19977 -0.70915,0.89893 -0.83901,3.23616 -1.77789,6.16268 -3.77552,6.16268 -1.49821,0 -1.49821,-1.58811 -1.49821,-2.28728 0,-1.18859 0.0699,-1.43829 0.29964,-2.38716 z"
           id="path3425" />
        <path
           id="path7776-32"
           d="m 1126.2062,689.54352 0.7621,-0.009 0.802,-0.009 0.8027,-0.0201 0.8431,-0.0314 0.8437,-0.0428 0.8842,-0.054 0.8445,-0.0655 0.8851,-0.0768 0.8855,-0.0881 0.8865,-0.1109 0.887,-0.12228 0.8874,-0.13365 0.8882,-0.1564 0.8487,-0.16791 0.8491,-0.17929 0.8501,-0.20203 0.8109,-0.22492 0.8113,-0.2363 0.7721,-0.25917 0.733,-0.28206 0.7334,-0.29343 0.6548,-0.32782 0.6549,-0.33919 0.616,-0.36208 0.5367,-0.38508 0.538,-0.41922 0.4582,-0.43085 0.4198,-0.4651 0.2099,-0.23824 0.1705,-0.24975 0.1297,-0.24987 0.1709,-0.26113 0.1312,-0.26125 0.091,-0.27276 0.1311,-0.284 0.052,-0.28426 c 0.2118,-0.28375 1.0227,-0.50866 2.2252,-0.50477 2.2049,0.007 2.1861,0.47354 2.1613,1.08783 -0.2283,5.67648 -10.5771,10.79683 -25.3707,10.79444 l -45.5376,-0.14747 c -7.7767,-0.0252 -14.2305,-0.0461 -20.8961,2.20777 -5.8119,1.96081 -6.3403,4.13215 -6.5904,5.37145 -0.2119,0.28374 -1.0223,0.49728 -2.225,0.49339 -2.0043,-0.006 -1.9905,-0.34776 -2.1281,-0.91707 -0.6917,-3.73395 -7.7176,-6.47585 -17.5136,-7.13332 -2.1973,-0.18915 -2.558,-0.19032 -9.7736,-0.21368 l -39.5247,-0.12799 c -8.37791,-0.0271 -14.79165,-0.0479 -22.25856,-2.79123 -5.92462,-2.21498 -7.9383,-5.97597 -7.84957,-8.18286 0.0248,-0.61429 0.0433,-1.08069 2.20811,-1.07368 2.00428,0.006 1.9901,0.35914 2.16813,0.91719 0.65808,3.57457 6.95976,6.38239 17.07221,7.14328 1.79656,0.18785 2.15734,0.18902 9.37286,0.21238 l 41.96992,0.13591 c 9.2198,0.0299 12.5691,0.48441 18.87,2.31379 4.1611,1.20808 6.099,2.86404 7.5988,4.45033 4.7569,-4.63787 14.058,-6.63288 25.6429,-6.59537 z"
           inkscape:connector-curvature="0"
           style="font-style:normal;font-variant:normal;font-weight:normal;font-stretch:normal;letter-spacing:normal;word-spacing:normal;text-anchor:start;fill:#000000;stroke:#000000;stroke-width:0;stroke-linecap:butt;stroke-linejoin:miter;stroke-miterlimit:10.43299961;stroke-opacity:1;stroke-dasharray:none;stroke-dashoffset:0" />
        <g
           transform="matrix(0.82197452,0,0,0.82197452,737.56745,509.31967)"
           id="g4611">
          <g
             style="font-style:normal;font-variant:normal;font-weight:normal;font-stretch:normal;letter-spacing:normal;word-spacing:normal;text-anchor:start;fill:none;stroke:#000000;stroke-linecap:butt;stroke-linejoin:miter;stroke-miterlimit:10.43299961;stroke-opacity:1;stroke-dasharray:none;stroke-dashoffset:0"
             id="content"
             transform="matrix(1.0748,0,0,-1.0748,-188.09,708.06752)"
             xml:space="preserve"
             stroke-miterlimit="10.433"
             font-style="normal"
             font-variant="normal"
             font-weight="normal"
             font-stretch="normal"
             font-size-adjust="none"
             letter-spacing="normal"
             word-spacing="normal"><path
               style="fill:#000000;stroke-width:0"
               inkscape:connector-curvature="0"
               d="m 481.38,423.14 0.47,0.11 0.48,0.12 0.48,0.14 0.48,0.15 0.49,0.16 0.48,0.18 0.48,0.19 0.47,0.2 0.47,0.22 0.47,0.23 0.46,0.24 0.45,0.25 0.43,0.27 0.43,0.28 0.42,0.29 0.4,0.3 0.39,0.31 0.37,0.32 0.36,0.34 0.33,0.35 0.32,0.35 0.29,0.37 0.28,0.38 0.25,0.39 0.22,0.4 0.2,0.41 0.17,0.42 0.15,0.43 0.11,0.44 0.08,0.45 0.05,0.46 0.02,0.47 c 0,4.28 -4.48,7.47 -11,7.47 h -14.2 c -1,0 -1.45,0 -1.45,-1 0,-0.55 0.45,-0.55 1.4,-0.55 0.1,0 1.05,0 1.89,-0.09 0.89,-0.11 1.35,-0.16 1.35,-0.8 0,-0.2 -0.05,-0.36 -0.21,-0.95 l -6.67,-26.75 c -0.5,-1.95 -0.59,-2.34 -4.53,-2.34 -0.91,0 -1.34,0 -1.34,-1 0,-0.55 0.59,-0.55 0.68,-0.55 1.41,0 4.89,0.16 6.29,0.16 1.39,0 4.93,-0.16 6.32,-0.16 0.41,0 1,0 1,1 0,0.55 -0.45,0.55 -1.39,0.55 -1.84,0 -3.25,0 -3.25,0.89 0,0.29 0.11,0.54 0.16,0.84 l 3.28,13.2 h 5.94 l -0.05,1.11 h -5.59 l 3.25,13 c 0.29,1.19 0.43,1.69 1.39,1.85 0.45,0.04 2.04,0.04 3.03,0.04 3.55,0 9.08,0 9.08,-4.93 0,-1.69 -0.8,-5.13 -2.75,-7.07 -1.28,-1.29 -3.92,-2.89 -8.41,-2.89 l 0.05,-1.11 c 4.53,0 5.42,-2.78 5.42,-4.53 0,-0.75 -0.39,-2.28 -0.69,-3.44 -0.36,-1.39 -0.79,-3.23 -0.79,-4.23 0,-5.37 5.96,-5.37 6.62,-5.37 4.23,0 5.97,5.03 5.97,5.73 0,0.59 -0.55,0.59 -0.59,0.59 -0.46,0 -0.55,-0.36 -0.65,-0.7 -1.25,-3.69 -3.39,-4.53 -4.54,-4.53 -1.64,0 -1.99,1.09 -1.99,3.05 0,1.53 0.3,4.07 0.5,5.67 0.1,0.7 0.21,1.64 0.21,2.34 0,3.83 -3.35,5.38 -4.69,5.88 z"
               id="path4614" /><path
               style="fill:#000000;stroke-width:0"
               inkscape:connector-curvature="0"
               d="m 508.34,411.86 -0.09,-0.03 -0.08,-0.02 -0.08,-0.03 -0.08,-0.02 -0.07,-0.04 -0.08,-0.03 -0.07,-0.04 -0.07,-0.04 -0.06,-0.04 -0.07,-0.04 -0.06,-0.05 -0.06,-0.05 -0.05,-0.05 -0.06,-0.05 -0.05,-0.05 -0.05,-0.06 -0.04,-0.05 -0.05,-0.06 -0.04,-0.06 -0.04,-0.06 -0.03,-0.06 -0.03,-0.06 -0.03,-0.06 -0.03,-0.06 -0.02,-0.07 -0.03,-0.06 -0.01,-0.07 -0.02,-0.06 -0.01,-0.07 -0.01,-0.06 0,-0.07 0,-0.06 c 0,-0.81 0.7,-1.12 1.15,-1.12 0.35,0 1.68,0.21 1.68,1.98 0,2.27 -2.5,3.03 -4.63,3.03 -5.44,0 -6.42,-4 -6.42,-5.08 0,-1.29 0.73,-2.12 1.22,-2.54 0.9,-0.71 1.53,-0.83 3.93,-1.25 0.74,-0.14 2.97,-0.57 2.97,-2.3 0,-0.59 -0.39,-1.92 -1.84,-2.8 -1.36,-0.76 -3.08,-0.76 -3.48,-0.76 -1.41,0 -3.4,0.31 -4.19,1.47 1.15,0.14 1.92,1 1.92,1.98 0,0.87 -0.63,1.28 -1.36,1.28 -1.02,0 -2.03,-0.8 -2.03,-2.33 0,-2.09 2.23,-3.37 5.61,-3.37 6.42,0 7.61,4.39 7.61,5.75 0,3.2 -3.53,3.83 -4.81,4.08 -0.32,0.06 -1.19,0.2 -1.4,0.26 -1.29,0.25 -1.92,0.99 -1.92,1.75 0,0.8 0.63,1.74 1.39,2.24 0.94,0.59 2.16,0.65 2.75,0.65 0.74,0 2.55,-0.11 3.32,-1.29 z"
               id="path4616" /><path
               style="fill:#000000;stroke-width:0"
               inkscape:connector-curvature="0"
               d="m 562.72,422.5 0.13,0 0.15,0 0.14,0 0.08,0.01 0.07,0 0.07,0.01 0.07,0.01 0.07,0.01 0.07,0.01 0.07,0.01 0.07,0.02 0.06,0.02 0.06,0.02 0.06,0.02 0.06,0.03 0.06,0.03 0.05,0.04 0.05,0.03 0.05,0.05 0.04,0.04 0.04,0.05 0.02,0.03 0.02,0.03 0.01,0.02 0.02,0.03 0.01,0.03 0.02,0.04 0.01,0.03 0.01,0.04 0.01,0.03 0.01,0.04 0.01,0.04 0,0.04 0.01,0.04 0,0.04 0,0.04 0,0.05 c 0,1 -0.95,1 -1.64,1 h -29.84 c -0.7,0 -1.64,0 -1.64,-1 0,-0.98 0.94,-0.98 1.69,-0.98 z"
               id="path4618" /><path
               style="fill:#000000;stroke-width:0"
               inkscape:connector-curvature="0"
               d="m 562.76,412.82 0.07,0 0.06,0 0.14,0.01 0.14,0 0.07,0 0.07,0.01 0.07,0.01 0.07,0 0.07,0.01 0.06,0.02 0.07,0.01 0.06,0.02 0.07,0.02 0.06,0.02 0.06,0.02 0.06,0.03 0.05,0.03 0.05,0.04 0.05,0.04 0.05,0.04 0.04,0.05 0.02,0.02 0.02,0.03 0.02,0.02 0.02,0.03 0.01,0.03 0.02,0.03 0.01,0.03 0.02,0.03 0.01,0.04 0.01,0.03 0.01,0.04 0.01,0.04 0.01,0.04 0,0.04 0.01,0.04 0,0.04 0,0.05 0,0.04 c 0,1 -0.95,1 -1.68,1 h -29.75 c -0.75,0 -1.69,0 -1.69,-1 0,-1 0.94,-1 1.64,-1 z"
               id="path4620" /><path
               style="fill:#000000;stroke-width:0"
               inkscape:connector-curvature="0"
               d="m 595.68,438.09 0,0.05 0,0.06 0,0.05 0,0.05 0,0.05 0,0.05 0,0.04 0,0.05 0,0.04 0,0.04 -0.01,0.04 0,0.04 0,0.04 0,0.03 0,0.04 -0.01,0.03 -0.01,0.07 0,0.06 -0.02,0.05 -0.01,0.05 -0.02,0.05 -0.02,0.04 -0.02,0.04 -0.02,0.03 -0.03,0.03 -0.03,0.03 -0.04,0.03 -0.04,0.02 -0.04,0.02 -0.03,0.01 -0.02,0.01 -0.03,0 -0.02,0.01 -0.03,0.01 -0.03,0 -0.03,0.01 -0.03,0 -0.04,0.01 -0.03,0 -0.04,0 -0.04,0.01 -0.03,0 -0.04,0 -0.05,0 -0.04,0 -0.04,0 -0.05,0.01 -0.05,0 -0.05,0 -0.05,0 -0.05,0 c -3.09,-3.19 -7.47,-3.19 -9.06,-3.19 v -1.55 c 1,0 3.93,0 6.51,1.3 v -25.81 c 0,-1.8 -0.14,-2.39 -4.62,-2.39 h -1.6 v -1.55 c 1.75,0.16 6.08,0.16 8.07,0.16 2,0 6.32,0 8.07,-0.16 v 1.55 h -1.59 c -4.48,0 -4.64,0.54 -4.64,2.39 z"
               id="path4622" /></g>        </g>
      </g>
    </g>
  </g>
</svg>
