<?xml version="1.0" encoding="UTF-8" standalone="no"?>
<!-- Created with Inkscape (http://www.inkscape.org/) -->

<svg
   xmlns:dc="http://purl.org/dc/elements/1.1/"
   xmlns:cc="http://creativecommons.org/ns#"
   xmlns:rdf="http://www.w3.org/1999/02/22-rdf-syntax-ns#"
   xmlns:svg="http://www.w3.org/2000/svg"
   xmlns="http://www.w3.org/2000/svg"
   xmlns:xlink="http://www.w3.org/1999/xlink"
   xmlns:sodipodi="http://sodipodi.sourceforge.net/DTD/sodipodi-0.dtd"
   xmlns:inkscape="http://www.inkscape.org/namespaces/inkscape"
   id="svg3136"
   version="1.1"
   inkscape:version="0.48.4 r9939"
   width="290.12782"
   height="174.74174"
   xml:space="preserve"
   sodipodi:docname="Smoluchowski.pdf"><sodipodi:namedview
     pagecolor="#ffffff"
     bordercolor="#666666"
     borderopacity="1"
     objecttolerance="10"
     gridtolerance="10"
     guidetolerance="10"
     inkscape:pageopacity="0"
     inkscape:pageshadow="2"
     inkscape:window-width="1680"
     inkscape:window-height="1025"
     id="namedview3138"
     showgrid="false"
     inkscape:zoom="2.1042226"
     inkscape:cx="42.3433"
     inkscape:cy="27.658802"
     inkscape:window-x="0"
     inkscape:window-y="0"
     inkscape:window-maximized="1"
     inkscape:current-layer="g3144" /><metadata
     id="metadata3142"><rdf:RDF><cc:Work
         rdf:about=""><dc:format>image/svg+xml</dc:format><dc:type
           rdf:resource="http://purl.org/dc/dcmitype/StillImage" /><dc:title></dc:title></cc:Work></rdf:RDF></metadata><defs
     id="defs3140"><clipPath
       id="clipPath3154"
       clipPathUnits="userSpaceOnUse"><path
         id="path3156"
         d="m 33.130256,13.741815 197.532004,0 0,122.342395 -197.532004,0 0,-122.342395 z" /></clipPath><clipPath
       id="clipPath3164"
       clipPathUnits="userSpaceOnUse"><path
         id="path3166"
         d="m 33.130256,13.741815 197.532004,0 0,122.342395 -197.532004,0 0,-122.342395 z" /></clipPath><clipPath
       id="clipPath3174"
       clipPathUnits="userSpaceOnUse"><path
         id="path3176"
         d="m 33.130256,13.741815 197.532004,0 0,122.342395 -197.532004,0 0,-122.342395 z" /></clipPath><linearGradient
       id="linearGradient8510-7-4"><stop
         id="stop8512-6-3"
         offset="0"
         style="stop-color:#ffffff;stop-opacity:1;" /><stop
         id="stop8514-7-6"
         offset="1"
         style="stop-color:#cc0000;stop-opacity:1;" /></linearGradient><linearGradient
       inkscape:collect="always"
       xlink:href="#linearGradient8510-7-4"
       id="linearGradient3401-5"
       gradientUnits="userSpaceOnUse"
       x1="392.4679"
       y1="365.61603"
       x2="263.83093"
       y2="404.95425" /><linearGradient
       y2="404.95425"
       x2="263.83093"
       y1="365.61603"
       x1="392.4679"
       gradientUnits="userSpaceOnUse"
       id="linearGradient3420"
       xlink:href="#linearGradient8510-7-1"
       inkscape:collect="always" /><linearGradient
       id="linearGradient8510-7-1"><stop
         id="stop8512-6-2"
         offset="0"
         style="stop-color:#ffffff;stop-opacity:1;" /><stop
         id="stop8514-7-1"
         offset="1"
         style="stop-color:#cccccc;stop-opacity:1;" /></linearGradient><linearGradient
       inkscape:collect="always"
       xlink:href="#linearGradient8510-7-1"
       id="linearGradient3401-4"
       gradientUnits="userSpaceOnUse"
       x1="392.4679"
       y1="365.61603"
       x2="263.83093"
       y2="404.95425" /><linearGradient
       inkscape:collect="always"
       xlink:href="#linearGradient8510"
       id="linearGradient3399"
       gradientUnits="userSpaceOnUse"
       x1="417.85715"
       y1="513.43317"
       x2="518.29382"
       y2="587.62073" /><linearGradient
       inkscape:collect="always"
       xlink:href="#linearGradient8510"
       id="linearGradient3305"
       gradientUnits="userSpaceOnUse"
       x1="417.85715"
       y1="513.43317"
       x2="587.38647"
       y2="512.07843" /><linearGradient
       inkscape:collect="always"
       xlink:href="#linearGradient8510-7"
       id="linearGradient3303"
       gradientUnits="userSpaceOnUse"
       x1="392.4679"
       y1="365.61603"
       x2="263.83093"
       y2="404.95425" /><linearGradient
       inkscape:collect="always"
       xlink:href="#linearGradient8510-7"
       id="linearGradient6867"
       gradientUnits="userSpaceOnUse"
       x1="392.4679"
       y1="365.61603"
       x2="121.69505"
       y2="476.49326" /><linearGradient
       inkscape:collect="always"
       xlink:href="#linearGradient8510"
       id="linearGradient6824"
       gradientUnits="userSpaceOnUse"
       x1="417.85715"
       y1="513.43317"
       x2="587.38647"
       y2="512.07843" /><linearGradient
       id="linearGradient8510-7"><stop
         id="stop8512-6"
         offset="0"
         style="stop-color:#ffffff;stop-opacity:1;" /><stop
         id="stop8514-7"
         offset="1"
         style="stop-color:#cc0000;stop-opacity:1;" /></linearGradient><linearGradient
       y2="513.43317"
       x2="594.28571"
       y1="513.43317"
       x1="417.85715"
       gradientUnits="userSpaceOnUse"
       id="linearGradient4040-5"
       xlink:href="#linearGradient8510-7"
       inkscape:collect="always" /><marker
       style="overflow:visible"
       id="Arrow2Lend"
       refX="0"
       refY="0"
       orient="auto"
       inkscape:stockid="Arrow2Lend"><path
         inkscape:connector-curvature="0"
         transform="matrix(-1.1,0,0,-1.1,-1.1,0)"
         d="M 8.7185878,4.0337352 -2.2072895,0.01601326 8.7185884,-4.0017078 c -1.7454984,2.3720609 -1.7354408,5.6174519 -6e-7,8.035443 z"
         style="fill-rule:evenodd;stroke-width:0.625;stroke-linejoin:round"
         id="path3880" /></marker><marker
       style="overflow:visible"
       id="Arrow1Lend"
       refX="0"
       refY="0"
       orient="auto"
       inkscape:stockid="Arrow1Lend"><path
         inkscape:connector-curvature="0"
         transform="matrix(-0.8,0,0,-0.8,-10,0)"
         style="fill-rule:evenodd;stroke:#000000;stroke-width:1pt"
         d="M 0,0 5,-5 -12.5,0 5,5 0,0 z"
         id="path3862" /></marker><marker
       style="overflow:visible"
       id="Arrow2Mend"
       refX="0"
       refY="0"
       orient="auto"
       inkscape:stockid="Arrow2Mend"><path
         inkscape:connector-curvature="0"
         transform="scale(-0.6,-0.6)"
         d="M 8.7185878,4.0337352 -2.2072895,0.01601326 8.7185884,-4.0017078 c -1.7454984,2.3720609 -1.7354408,5.6174519 -6e-7,8.035443 z"
         style="fill-rule:evenodd;stroke-width:0.625;stroke-linejoin:round"
         id="path3886" /></marker><marker
       style="overflow:visible"
       id="Arrow1Mstart"
       refX="0"
       refY="0"
       orient="auto"
       inkscape:stockid="Arrow1Mstart"><path
         inkscape:connector-curvature="0"
         transform="matrix(0.4,0,0,0.4,4,0)"
         style="fill-rule:evenodd;stroke:#000000;stroke-width:1pt"
         d="M 0,0 5,-5 -12.5,0 5,5 0,0 z"
         id="path3865" /></marker><marker
       style="overflow:visible"
       id="Arrow2Lstart"
       refX="0"
       refY="0"
       orient="auto"
       inkscape:stockid="Arrow2Lstart"><path
         inkscape:connector-curvature="0"
         transform="matrix(1.1,0,0,1.1,1.1,0)"
         d="M 8.7185878,4.0337352 -2.2072895,0.01601326 8.7185884,-4.0017078 c -1.7454984,2.3720609 -1.7354408,5.6174519 -6e-7,8.035443 z"
         style="fill-rule:evenodd;stroke-width:0.625;stroke-linejoin:round"
         id="path3877" /></marker><marker
       style="overflow:visible"
       id="Arrow2Mstart"
       refX="0"
       refY="0"
       orient="auto"
       inkscape:stockid="Arrow2Mstart"><path
         inkscape:connector-curvature="0"
         transform="scale(0.6,0.6)"
         d="M 8.7185878,4.0337352 -2.2072895,0.01601326 8.7185884,-4.0017078 c -1.7454984,2.3720609 -1.7354408,5.6174519 -6e-7,8.035443 z"
         style="fill-rule:evenodd;stroke-width:0.625;stroke-linejoin:round"
         id="path3883" /></marker><linearGradient
       id="linearGradient8498"><stop
         style="stop-color:#cccccc;stop-opacity:1;"
         offset="0"
         id="stop8500" /><stop
         style="stop-color:#cccccc;stop-opacity:0;"
         offset="1"
         id="stop8502" /></linearGradient><linearGradient
       id="linearGradient8510"><stop
         id="stop8512"
         offset="0"
         style="stop-color:#cccccc;stop-opacity:0.01960784;" /><stop
         id="stop8514"
         offset="1"
         style="stop-color:#cccccc;stop-opacity:1;" /></linearGradient></defs><g
     transform="matrix(1.25,0,0,-1.25,0,174.74174)"
     inkscape:label="d1"
     inkscape:groupmode="layer"
     id="g3144"><g
       inkscape:label="Ebene 1"
       id="layer1"
       transform="matrix(0.8,0,0,-0.8,-160.8965,885.44691)"><text
         sodipodi:linespacing="125%"
         id="text3422"
         y="358.36221"
         x="177"
         style="font-size:40px;font-style:normal;font-weight:normal;line-height:125%;letter-spacing:0px;word-spacing:0px;fill:#000000;fill-opacity:1;stroke:none;font-family:Sans"
         xml:space="preserve"><tspan
           y="358.36221"
           x="177"
           id="tspan3424"
           sodipodi:role="line" /></text>
<text
         transform="translate(0,752.36208)"
         sodipodi:linespacing="125%"
         id="text6701"
         y="109.50001"
         x="70"
         style="font-size:40px;font-style:normal;font-weight:normal;line-height:125%;letter-spacing:0px;word-spacing:0px;fill:#000000;fill-opacity:1;stroke:none;font-family:Sans"
         xml:space="preserve"><tspan
           y="109.50001"
           x="70"
           id="tspan6703"
           sodipodi:role="line" /></text>
</g><path
       sodipodi:type="arc"
       style="fill:#cccccc;fill-rule:evenodd;stroke:#000000;stroke-width:1px;stroke-linecap:butt;stroke-linejoin:miter;stroke-opacity:1"
       id="path2985"
       sodipodi:cx="177.14285"
       sodipodi:cy="486.64789"
       sodipodi:rx="54.285713"
       sodipodi:ry="52.857143"
       d="m 231.42857,486.64789 c 0,29.19219 -24.30455,52.85714 -54.28572,52.85714 -29.98117,0 -54.28571,-23.66495 -54.28571,-52.85714 0,-29.1922 24.30454,-52.85715 54.28571,-52.85715 29.98117,0 54.28572,23.66495 54.28572,52.85715 z"
       transform="matrix(0.50735334,0,0,-0.52106557,-52.017541,301.60909)" /><path
       inkscape:connector-curvature="0"
       id="path3798"
       d="m 37.680597,48.624021 139.531043,0"
       style="fill:none;stroke:#000000;stroke-width:0.5012536;stroke-linecap:butt;stroke-linejoin:miter;stroke-miterlimit:4;stroke-opacity:1;stroke-dasharray:none;marker-end:url(#Arrow1Lend)" /><path
       inkscape:connector-curvature="0"
       id="path3853"
       d="m 37.856468,48.365732 0,80.928478"
       style="fill:none;stroke:#000000;stroke-width:0.47233173;stroke-linecap:butt;stroke-linejoin:miter;stroke-miterlimit:4;stroke-opacity:1;stroke-dasharray:none;marker-end:url(#Arrow1Lend)" /><text
       transform="scale(1,-1)"
       sodipodi:linespacing="125%"
       id="text3468"
       y="-121.05371"
       x="15.400224"
       style="font-size:3.33589411px;font-style:normal;font-weight:normal;line-height:125%;letter-spacing:0px;word-spacing:0px;fill:#000000;fill-opacity:1;stroke:none;font-family:Sans"
       xml:space="preserve"><tspan
         y="-121.05371"
         x="15.400224"
         id="tspan3470"
         sodipodi:role="line">$\rho(r)$</tspan></text>
<text
       transform="scale(1,-1)"
       sodipodi:linespacing="125%"
       id="text3498"
       y="-54.08548"
       x="45.531673"
       style="font-size:3.33589411px;font-style:normal;font-weight:normal;line-height:125%;letter-spacing:0px;word-spacing:0px;fill:#000000;fill-opacity:1;stroke:none;font-family:Sans"
       xml:space="preserve"><tspan
         y="-54.08548"
         x="45.531673"
         id="tspan3500"
         sodipodi:role="line">$R_s$</tspan></text>
<text
       transform="scale(1,-1)"
       sodipodi:linespacing="125%"
       id="text3510"
       y="-36.821579"
       x="170.30957"
       style="font-size:3.33589411px;font-style:normal;font-weight:normal;line-height:125%;letter-spacing:0px;word-spacing:0px;fill:#000000;fill-opacity:1;stroke:none;font-family:Sans"
       xml:space="preserve"><tspan
         y="-36.821579"
         x="170.30957"
         id="tspan3512"
         sodipodi:role="line">$r$</tspan></text>
<text
       transform="scale(1,-1)"
       sodipodi:linespacing="125%"
       id="text5008"
       y="-33.163002"
       x="29.300528"
       style="font-size:8.80000019px;font-style:normal;font-weight:normal;line-height:125%;letter-spacing:0px;word-spacing:0px;fill:#000000;fill-opacity:1;stroke:none;font-family:Sans"
       xml:space="preserve"><tspan
         y="-33.163002"
         x="29.300528"
         id="tspan5010"
         sodipodi:role="line">Sink</tspan></text>
<path
       id="path6679"
       title="1-1/x"
       d="m 65.249294,48.90122 112.135556,0 m -112.135556,0 c 0.377559,2.538479 0.755121,4.847791 1.132682,6.980819 0.37756,2.133027 0.755121,4.089356 1.132683,5.906847 0.377559,1.81749 0.75512,3.495888 1.132682,5.063012 0.37756,1.567122 0.755121,3.022804 1.132681,4.387941 0.377561,1.365138 0.755122,2.639623 1.132683,3.839453 0.377561,1.199827 0.755122,2.324924 1.132682,3.387751 0.377561,1.062822 0.755122,2.06332 1.132683,3.011331 0.377561,0.948014 0.755121,1.843505 1.132682,2.694352 0.377562,0.850847 0.755122,1.657028 1.132683,2.424915 0.377559,0.76789 0.755121,1.497475 1.132682,2.193974 0.377561,0.696498 0.755119,1.359897 1.13268,1.99452 0.37756,0.634617 0.755122,1.240448 1.132683,1.821081 0.377561,0.580636 0.755122,1.13607 1.132682,1.669327 0.377561,0.533257 0.755123,1.044328 1.132683,1.535785 0.377561,0.491448 0.755122,0.963266 1.132682,1.417641 0.377562,0.454367 0.755122,0.891291 1.132684,1.31263 0.377561,0.421338 0.755121,0.827092 1.132682,1.218878 0.377562,0.391773 0.755122,0.769583 1.132683,1.134813 0.377557,0.36522 0.755118,0.71787 1.13268,1.05915 0.37756,0.34129 0.755121,0.6712 1.132682,0.99083 0.377561,0.31962 0.755122,0.62894 1.132683,0.92889 0.37756,0.29997 0.755121,0.59056 1.132681,0.87261 0.377562,0.28205 0.755123,0.55557 1.132684,0.82127 0.377561,0.26571 0.755122,0.52361 1.132683,0.77435 0.377561,0.25073 0.755122,0.49432 1.132682,0.73132 0.377561,0.237 0.755121,0.46743 1.132683,0.69179 0.377561,0.22437 0.755122,0.44268 1.132683,0.6554 0.377561,0.21269 0.755121,0.41981 1.132683,0.62177 0.37756,0.20193 0.755117,0.39871 1.132686,0.59068 0.37755,0.19196 0.755109,0.37915 1.132678,0.56187 0.377559,0.18272 0.755118,0.36099 1.132676,0.53511 0.37756,0.17413 0.75513,0.3441 1.13268,0.51022 0.37757,0.16612 0.75513,0.32838 1.1327,0.48704 0.37755,0.15866 0.75511,0.3137 1.13267,0.46539 0.37756,0.15168 0.75513,0.29999 1.13268,0.44515 0.37756,0.14515 0.75513,0.28717 1.13269,0.42621 0.37756,0.13905 0.75512,0.27514 1.13268,0.40846 0.37757,0.13331 0.75512,0.26385 1.13268,0.39178 0.37756,0.12793 0.75512,0.25324 1.13268,0.3761 0.37756,0.12286 0.75512,0.24327 1.13269,0.36137 0.37756,0.11809 0.75512,0.23387 1.13268,0.34746 0.37756,0.11359 0.75513,0.225 1.13268,0.33435 0.37756,0.10934 0.75512,0.21662 1.13268,0.32196 0.37756,0.10533 0.75512,0.20872 1.13269,0.31027 0.37756,0.10153 0.75511,0.20122 1.13268,0.29917 0.37756,0.0979 0.75513,0.19413 1.13268,0.28868 0.37756,0.0945 0.75512,0.18742 1.13268,0.27873 0.37757,0.0913 0.75512,0.18104 1.13269,0.26927 0.37756,0.0882 0.75512,0.17499 1.13268,0.2603 0.37756,0.0853 0.75512,0.16922 1.13268,0.25178 0.37755,0.0825 0.75511,0.16373 1.13268,0.24364 0.37756,0.0799 0.75512,0.15853 1.13268,0.23591 0.37756,0.0774 0.75513,0.15356 1.13269,0.22853 0.37756,0.0749 0.75512,0.14882 1.13268,0.22152 0.37756,0.0727 0.75511,0.14428 1.13268,0.21479 0.37756,0.0705 0.75513,0.13996 1.13268,0.20839 0.37756,0.0684 0.75513,0.13582 1.13269,0.20224 0.37756,0.0664 0.75512,0.13188 1.13268,0.1964 0.37756,0.0645 0.75511,0.12809 1.13268,0.19078 0.37756,0.0627 0.75512,0.12447 1.13269,0.1854 0.37755,0.0609 0.75511,0.121 1.13268,0.18026 0.37756,0.0593 0.75512,0.11768 1.13268,0.17531 0.37756,0.0577 0.75512,0.1145 1.13267,0.17058 0.37757,0.0561 0.75513,0.11142 1.13269,0.16603 0.37756,0.0546 0.75512,0.10849 1.13269,0.16167 0.37756,0.0531 0.75512,0.10565 1.13268,0.15746 0.37756,0.0518 0.75512,0.10294 1.13268,0.15343 0.37756,0.0505 0.75512,0.10033 1.13268,0.14953 0.37757,0.0492 0.75512,0.0978 1.13269,0.1458 0.37756,0.048 0.75512,0.0954 1.13267,0.14221 0.37757,0.0468 0.75513,0.093 1.13269,0.13873 0.37755,0.0456 0.75511,0.0908 1.13268,0.13539 0.37756,0.0446 0.75513,0.0886 1.13268,0.13218 0.37756,0.0435 0.75513,0.0865 1.13269,0.12905 0.37756,0.0425 0.75512,0.0845 1.13268,0.12605 0.37756,0.0416 0.75511,0.0826 1.13268,0.12316 0.37756,0.0406 0.75513,0.0807 1.13268,0.12036 0.37756,0.0397 0.75513,0.0789 1.13269,0.11765 0.37757,0.0387 0.75512,0.0771 1.13267,0.11505 0.37757,0.0379 0.75513,0.0754 1.13268,0.1125 0.37757,0.037 0.75513,0.0738 1.1327,0.11007 0.37755,0.0363 0.75511,0.0722 1.13268,0.1077 0.37756,0.0355 0.75512,0.0707 1.13267,0.1054 0.37756,0.0348 0.75513,0.0691 1.13268,0.10319 0.37757,0.0341 0.75513,0.0677 1.13269,0.10104 0.37757,0.0333 0.75512,0.0663 1.13269,0.099 0.37756,0.0326 0.75512,0.065 1.13268,0.0969 0.37755,0.032 0.75512,0.0636 1.13268,0.095 0.37755,0.0313 0.75512,0.0623 1.13268,0.0931 0.37757,0.0307 0.75512,0.0611 1.13269,0.0912 0.37756,0.0301 0.75512,0.0599 1.13268,0.0894 0.37755,0.0296 0.75511,0.0588 1.13268,0.0877 0.37756,0.0289 0.75511,0.0576 1.13268,0.086 0.37756,0.0284 0.75513,0.0565 1.13268,0.0844 0.37756,0.0279 0.75513,0.0554 1.13269,0.0828 0.37755,0.0273 0.75511,0.0544 1.13268,0.0812 0.37756,0.0268 0.75511,0.0534 1.13268,0.0797 0.37756,0.0263 0.75513,0.0524 1.13269,0.0782 0.37755,0.0258 0.75512,0.0514 1.13268,0.0768"
       style="opacity:0.54077255999999996;fill:none;stroke:#000000;stroke-width:0.8;stroke-miterlimit:4;stroke-opacity:1;stroke-dasharray:none;stroke-dashoffset:0"
       inkscape:connector-curvature="0" /></g></svg>